<?xml version="1.0" encoding="UTF-8"?>
<svg width="24px" height="24px" viewBox="0 0 24 24" version="1.1" xmlns="http://www.w3.org/2000/svg" xmlns:xlink="http://www.w3.org/1999/xlink">
    <!-- Generator: Sketch 64 (93537) - https://sketch.com -->
    <title>Group 6</title>
    <desc>Created with Sketch.</desc>
    <g id="Page-1" stroke="none" stroke-width="1" fill="none" fill-rule="evenodd">
        <g id="Group-6" fill="#4f008d">
            <path d="M12.2222,8 C13.3862,8 14.3332,8.947 14.3332,10.111 C14.3332,11.275 13.3862,12.222 12.2222,12.222 C11.0582,12.222 10.1112,11.275 10.1112,10.111 C10.1112,8.947 11.0582,8 12.2222,8 M12.2222,14.222 C14.4892,14.222 16.3332,12.378 16.3332,10.111 C16.3332,7.845 14.4892,6 12.2222,6 C9.9552,6 8.1112,7.845 8.1112,10.111 C8.1112,12.378 9.9552,14.222 12.2222,14.222" id="Fill-1"></path>
            <path d="M7,20.6465 L7,19.4445 C7,18.2805 7.947,17.3335 9.111,17.3335 L15.333,17.3335 C16.498,17.3335 17.444,18.2805 17.444,19.4445 L17.444,20.3765 C15.876,21.3995 14.008,22.0005 12,22.0005 C10.178,22.0005 8.473,21.5015 7,20.6465 M2,12.0005 C2,6.4865 6.486,2.0005 12,2.0005 C17.514,2.0005 22,6.4865 22,12.0005 C22,14.5945 20.999,16.9535 19.373,18.7325 C19.033,16.8055 17.356,15.3335 15.333,15.3335 L9.111,15.3335 C6.943,15.3335 5.18,17.0255 5.029,19.1565 C3.164,17.3375 2,14.8035 2,12.0005 M24,12.0005 C24,5.3825 18.617,0.0005 12,0.0005 C5.383,0.0005 0,5.3825 0,12.0005 C0,18.6175 5.383,24.0005 12,24.0005 C14.481,24.0005 16.79,23.2435 18.705,21.9475 C18.95,21.8795 19.148,21.7285 19.279,21.5185 C22.143,19.3235 24,15.8785 24,12.0005" id="Fill-3"></path>
        </g>
    </g>
</svg>