<?xml version="1.0" encoding="UTF-8" standalone="no"?>
<!-- Created with Inkscape (http://www.inkscape.org/) -->

<svg
   xmlns:dc="http://purl.org/dc/elements/1.1/"
   xmlns:cc="http://creativecommons.org/ns#"
   xmlns:rdf="http://www.w3.org/1999/02/22-rdf-syntax-ns#"
   xmlns:svg="http://www.w3.org/2000/svg"
   xmlns="http://www.w3.org/2000/svg"
   xmlns:sodipodi="http://sodipodi.sourceforge.net/DTD/sodipodi-0.dtd"
   xmlns:inkscape="http://www.inkscape.org/namespaces/inkscape"
   version="1.1"
   id="svg2"
   xml:space="preserve"
   width="532.64935"
   height="339.03867"
   viewBox="0 0 532.64935 339.03867"
   sodipodi:docname="gulogo.svg"
   inkscape:version="0.92.3 (2405546, 2018-03-11)"><metadata
     id="metadata8"><rdf:RDF><cc:Work
         rdf:about=""><dc:format>image/svg+xml</dc:format><dc:type
           rdf:resource="http://purl.org/dc/dcmitype/StillImage" /><dc:title></dc:title></cc:Work></rdf:RDF></metadata><defs
     id="defs6"><clipPath
       clipPathUnits="userSpaceOnUse"
       id="clipPath18"><path
         d="M 0,254.279 H 399.487 V 0 H 0 Z"
         id="path16"
         inkscape:connector-curvature="0" /></clipPath></defs><sodipodi:namedview
     pagecolor="#ffffff"
     bordercolor="#666666"
     borderopacity="1"
     objecttolerance="10"
     gridtolerance="10"
     guidetolerance="10"
     inkscape:pageopacity="0"
     inkscape:pageshadow="2"
     inkscape:window-width="3440"
     inkscape:window-height="1377"
     id="namedview4"
     showgrid="false"
     inkscape:zoom="0.59326084"
     inkscape:cx="245.25469"
     inkscape:cy="169.51933"
     inkscape:window-x="-8"
     inkscape:window-y="-8"
     inkscape:window-maximized="1"
     inkscape:current-layer="layer4" /><g
     inkscape:groupmode="layer"
     id="layer4"
     inkscape:label="White"><rect
       style="fill:#ffffff;fill-opacity:1"
       id="rect4549"
       width="534.33496"
       height="333.74866"
       x="0"
       y="5.2900205" /></g><g
     id="g10"
     inkscape:groupmode="layer"
     inkscape:label="STC_logo"
     transform="matrix(1.3333333,0,0,-1.3333333,0,339.03867)"
     style="display:inline"><g
       id="g12"
       style="display:inline"><g
         id="g14"
         clip-path="url(#clipPath18)"><g
           id="g20"
           transform="translate(201.8447,56.1842)"
           style="fill:#4e257d;fill-opacity:1"><path
             d="M 0,0 C 11.471,0 19.633,3.53 23.162,6.618 V 30.442 C 20.515,28.457 15.221,26.03 8.382,26.03 3.529,26.03 0,27.133 -2.647,29.56 c -2.207,2.206 -3.309,5.956 -3.309,11.03 v 101.032 h -29.119 v -29.78 H 23.162 V 83.605 H -35.075 V 33.531 c 0,-10.148 3.088,-18.31 8.603,-24.045 C -20.295,3.309 -11.251,0 0,0 m 89.12,0 c 16.324,0 28.898,5.956 37.501,14.339 6.839,6.618 11.03,14.339 13.235,22.28 l -25.809,8.603 c -1.103,-3.971 -3.309,-8.162 -6.838,-11.471 -4.191,-3.971 -9.927,-6.838 -18.089,-6.838 -7.5,0 -14.559,2.867 -19.633,7.941 -5.074,5.294 -8.162,13.015 -8.162,22.722 0,9.926 3.088,17.426 8.162,22.721 5.074,5.074 11.912,7.721 19.412,7.721 7.942,0 13.456,-2.647 17.427,-6.618 3.31,-3.309 5.295,-7.501 6.618,-11.692 l 26.251,8.824 c -1.985,7.721 -6.176,15.442 -12.353,21.839 -8.824,8.603 -21.618,14.78 -38.605,14.78 -15.662,0 -29.78,-5.956 -39.927,-16.104 C 38.162,88.679 31.986,74.341 31.986,57.576 31.986,40.81 38.383,26.472 48.751,16.104 58.898,5.956 73.237,0 89.12,0 M -97.062,0 c 14.78,0 26.913,4.633 34.854,12.354 5.956,5.956 9.485,13.897 9.485,23.162 0,8.382 -3.088,15.883 -8.823,21.618 -5.736,5.736 -13.898,9.927 -24.266,11.912 l -16.986,3.309 c -7.058,1.324 -11.029,4.853 -11.029,9.707 0,6.397 6.176,10.809 16.103,10.809 6.177,0 11.471,-1.986 15,-5.515 2.206,-2.427 3.751,-5.515 4.192,-9.044 l 24.486,5.514 c -0.662,7.059 -3.971,13.236 -9.044,18.31 -7.942,7.941 -20.295,13.015 -34.854,13.015 -13.457,0 -24.707,-4.412 -32.428,-11.471 -6.618,-6.177 -10.368,-14.559 -10.368,-23.825 0,-8.162 2.647,-15 7.942,-20.294 5.294,-5.294 13.015,-9.265 23.162,-11.692 l 16.765,-3.971 c 8.383,-1.985 12.133,-5.073 12.133,-10.588 0,-6.838 -6.177,-10.809 -16.324,-10.809 -7.28,0 -13.236,2.426 -16.986,6.397 -2.647,2.647 -4.191,6.177 -4.412,10.147 l -25.148,-5.514 c 0.662,-7.501 4.191,-14.118 9.486,-19.413 C -125.739,5.294 -112.283,0 -97.062,0"
             style="fill:#4e257d;fill-opacity:1;fill-rule:nonzero;stroke:none"
             id="path22"
             inkscape:connector-curvature="0" /></g><rect
           style="fill:#ffffff;fill-opacity:1;stroke-width:0.39381897"
           id="rect4532"
           width="404.54382"
           height="256.63248"
           x="3.792614"
           y="-268.01028" /></g></g></g></svg>