<?xml version="1.0" encoding="UTF-8"?>
<svg width="22px" height="21px" viewBox="0 0 22 21" version="1.1" xmlns="http://www.w3.org/2000/svg" xmlns:xlink="http://www.w3.org/1999/xlink">
    <!-- Generator: Sketch 64 (93537) - https://sketch.com -->
    <title>menu_htp</title>
    <desc>Created with Sketch.</desc>
    <defs>
        <polygon id="path-1" points="0.0001 0 22 0 22 21 0.0001 21"></polygon>
    </defs>
    <g id="Page-1" stroke="none" stroke-width="1" fill="none" fill-rule="evenodd">
        <g id="menu_htp">
            <mask id="mask-2" fill="white">
                <use xlink:href="#path-1"></use>
            </mask>
            <g id="Clip-2"></g>
            <path d="M12.0001,0 C13.6571,0 15.0001,1.343 15.0001,3 L15.0001,5.161 C15.4701,5.055 15.9721,5 16.5001,5 C19.5381,5 22.0001,7.462 22.0001,10.5 C22.0001,13.537 19.5381,16 16.5001,16 C16.4141,16 16.3281,15.998 16.2421,15.994 L17.2471,18.158 C17.3701,18.422 17.4331,18.709 17.4331,19 C17.4331,20.104 16.5381,21 15.4331,21 L5.5671,21 C5.2761,21 4.9881,20.937 4.7251,20.814 C3.7231,20.349 3.2881,19.159 3.7521,18.158 L5.2181,15 L0.0001,15 L0.0001,3 C0.0001,1.343 1.3431,0 3.0001,0 L12.0001,0 Z M10.5001,8.375 L5.5671,19 L15.4331,19 L10.5001,8.375 Z M16.5001,7 C14.9671,7 13.6441,7.992 13.1781,9.394 L15.2011,13.751 C15.6091,13.915 16.0481,14 16.5001,14 C18.4331,14 20.0001,12.433 20.0001,10.5 C20.0001,8.567 18.4331,7 16.5001,7 L16.5001,7 Z M12.1171,2.007 L12.0001,2 L3.0001,2 C2.4481,2 2.0001,2.447 2.0001,3 L2.0001,13 L6.1461,13 L8.6861,7.532 C8.8601,7.157 9.1461,6.847 9.5011,6.642 L9.6581,6.561 C10.5111,6.164 11.5001,6.421 12.0621,7.125 C12.3191,6.726 12.6351,6.381 13.0001,6.092 L13.0001,3 C13.0001,2.447 12.5521,2 12.0001,2 L12.1171,2.007 Z" id="Fill-1" fill="#4f008d" mask="url(#mask-2)"></path>
        </g>
    </g>
</svg>