<?xml version="1.0" encoding="UTF-8"?>
<svg width="22px" height="22px" viewBox="0 0 22 22" version="1.1" xmlns="http://www.w3.org/2000/svg" xmlns:xlink="http://www.w3.org/1999/xlink">
    <!-- Generator: Sketch 64 (93537) - https://sketch.com -->
    <title>menu_FAQ</title>
    <desc>Created with Sketch.</desc>
    <g id="Page-1" stroke="none" stroke-width="1" fill="none" fill-rule="evenodd">
        <g id="menu_FAQ" fill="#4f008d">
            <path d="M10.9998,-0.0005 C17.0748,-0.0005 21.9998,4.9255 21.9998,10.9995 C21.9998,17.0745 17.0748,21.9995 10.9998,21.9995 C4.9248,21.9995 -0.0002,17.0745 -0.0002,10.9995 C-0.0002,4.9255 4.9248,-0.0005 10.9998,-0.0005 L10.9998,-0.0005 Z M10.9998,1.9995 C6.0298,1.9995 1.9998,6.0295 1.9998,10.9995 C1.9998,15.9705 6.0298,19.9995 10.9998,19.9995 C15.9708,19.9995 19.9998,15.9705 19.9998,10.9995 C19.9998,6.0295 15.9708,1.9995 10.9998,1.9995 L10.9998,1.9995 Z M9.8718,17.9995 L11.7518,17.9995 L11.7518,15.2225 L9.8718,15.2225 L9.8718,17.9995 Z M11.2618,3.9995 C13.7098,3.9995 15.3998,5.7435 15.3998,7.8245 C15.3998,9.1995 14.8108,10.1235 13.4708,11.2455 L13.2918,11.3935 L11.7508,12.6425 L11.7518,14.0675 L9.8728,14.0675 L9.8728,11.8455 L12.2448,9.9445 C13.0858,9.2665 13.4678,8.6665 13.4678,7.8765 C13.4678,6.7335 12.6038,5.8035 11.2268,5.8035 C9.8558,5.8035 8.9438,6.7015 8.8828,7.8885 L8.8798,8.0165 L8.8798,8.6045 L6.9998,8.6045 L6.9998,8.0165 C6.9998,5.7585 8.7528,3.9995 11.2618,3.9995 L11.2618,3.9995 Z" id="Fill-1"></path>
        </g>
    </g>
</svg>