<?xml version="1.0" encoding="UTF-8"?>
<svg width="21px" height="24px" viewBox="0 0 21 24" version="1.1" xmlns="http://www.w3.org/2000/svg" xmlns:xlink="http://www.w3.org/1999/xlink">
    <!-- Generator: Sketch 64 (93537) - https://sketch.com -->
    <title>menu_profile</title>
    <desc>Created with Sketch.</desc>
    <g id="Page-1" stroke="none" stroke-width="1" fill="none" fill-rule="evenodd">
        <g id="menu_profile" fill="#4f008d">
            <path d="M16.5788,12.0002 C19.0208,12.0002 20.9998,13.7912 20.9998,16.0002 L20.9998,20.0002 C20.9998,22.2092 19.0208,24.0002 16.5788,24.0002 L-0.0002,24.0002 L-0.0002,16.0002 C-0.0002,13.7912 1.9788,12.0002 4.4208,12.0002 L16.5788,12.0002 Z M16.7328,14.0002 L4.2668,14.0002 C3.0148,14.0002 1.9998,14.8962 1.9998,16.0002 L1.9998,22.0002 L16.7328,22.0002 C17.9848,22.0002 18.9998,21.1042 18.9998,20.0002 L18.9998,16.0002 C18.9998,14.8962 17.9848,14.0002 16.7328,14.0002 L16.7328,14.0002 Z M10.4998,0.0002 C13.5368,0.0002 15.9998,2.4622 15.9998,5.5002 C15.9998,8.5372 13.5368,11.0002 10.4998,11.0002 C7.4628,11.0002 4.9998,8.5372 4.9998,5.5002 C4.9998,2.4622 7.4628,0.0002 10.4998,0.0002 L10.4998,0.0002 Z M10.4998,2.0002 C8.5668,2.0002 6.9998,3.5662 6.9998,5.5002 C6.9998,7.4332 8.5668,9.0002 10.4998,9.0002 C12.4328,9.0002 13.9998,7.4332 13.9998,5.5002 C13.9998,3.5662 12.4328,2.0002 10.4998,2.0002 L10.4998,2.0002 Z" id="Fill-1"></path>
        </g>
    </g>
</svg>