<?xml version="1.0" encoding="UTF-8"?>
<svg width="33px" height="33px" viewBox="0 0 33 33" version="1.1" xmlns="http://www.w3.org/2000/svg" xmlns:xlink="http://www.w3.org/1999/xlink">
    <!-- Generator: Sketch 64 (93537) - https://sketch.com -->
    <title>error</title>
    <desc>Created with Sketch.</desc>
    <g id="Page-1" stroke="none" stroke-width="1" fill="none" fill-rule="evenodd">
        <g id="error" transform="translate(0.000000, -1.000000)" fill="#4f008d">
            <path d="M16.3978,33.7953 C7.3418,33.7953 -0.0002,26.4533 -0.0002,17.3983 C-0.0002,8.3413 7.3418,1.0003 16.3978,1.0003 C25.4538,1.0003 32.7948,8.3413 32.7948,17.3983 C32.7858,26.4493 25.4498,33.7853 16.3978,33.7953 M16.3978,2.9283 C8.4058,2.9283 1.9278,9.4053 1.9278,17.3983 C1.9278,25.3893 8.4058,31.8673 16.3978,31.8673 C24.3898,31.8673 30.8678,25.3893 30.8678,17.3983 C30.8598,9.4093 24.3858,2.9363 16.3978,2.9283" id="Fill-1"></path>
            <path d="M10.2723,16.2904 C11.3653,16.2904 12.2513,15.4034 12.2513,14.3114 C12.2513,13.2184 11.3653,12.3324 10.2723,12.3324 C9.1793,12.3324 8.2933,13.2184 8.2933,14.3114 C8.2933,15.4034 9.1793,16.2904 10.2723,16.2904" id="Fill-4"></path>
            <path d="M22.5233,16.2904 C23.6163,16.2904 24.5023,15.4034 24.5023,14.3114 C24.5023,13.2184 23.6163,12.3324 22.5233,12.3324 C21.4303,12.3324 20.5443,13.2184 20.5443,14.3114 C20.5443,15.4034 21.4303,16.2904 22.5233,16.2904" id="Fill-6"></path>
            <path d="M10.2723,26.4642 C9.8973,26.4602 9.5593,26.2402 9.4033,25.9012 C9.2473,25.5612 9.3023,25.1602 9.5433,24.8752 C11.1073,23.1682 13.2453,22.0952 15.5483,21.8612 C18.0993,21.6572 20.6503,22.6382 23.1573,24.7772 C23.5093,25.1352 23.5283,25.7032 23.2003,26.0842 C22.8723,26.4652 22.3063,26.5302 21.9003,26.2342 C19.8153,24.4482 17.7313,23.6252 15.7053,23.7852 C13.9113,23.9762 12.2463,24.8062 11.0153,26.1252 C10.8303,26.3432 10.5583,26.4672 10.2723,26.4642" id="Fill-8"></path>
        </g>
    </g>
</svg>