<?xml version="1.0" encoding="UTF-8"?>
<svg width="42px" height="42px" viewBox="0 0 42 42" version="1.1" xmlns="http://www.w3.org/2000/svg" xmlns:xlink="http://www.w3.org/1999/xlink">
    <!-- Generator: Sketch 64 (93537) - https://sketch.com -->
    <title>Fill 1</title>
    <desc>Created with Sketch.</desc>
    <g id="Page-1" stroke="none" stroke-width="1" fill="none" fill-rule="evenodd">
        <path d="M22.7498,19.9214 L22.7498,9.6254 L19.2498,9.6254 L19.2498,22.0784 L35.7748,30.3844 C32.6058,35.3684 27.0828,38.5004 20.9998,38.5004 C11.3348,38.5004 3.4998,30.6644 3.4998,21.0004 C3.4998,11.3354 11.3348,3.5004 20.9998,3.5004 C30.6648,3.5004 38.4998,11.3354 38.4998,21.0004 L41.9998,21.0004 C41.9998,9.4014 32.5978,0.0004 20.9998,0.0004 C9.4018,0.0004 -0.0002,9.4014 -0.0002,21.0004 C-0.0002,32.5984 9.4018,42.0004 20.9998,42.0004 C29.0178,42.0004 36.2258,37.4664 39.7668,30.4334 L40.5548,28.8684 L22.7498,19.9214 Z" id="Fill-1" fill="#4f008d"></path>
    </g>
</svg>